<?xml version="1.0" encoding="utf-8"?>
<!-- Generator: Adobe Illustrator 21.1.0, SVG Export Plug-In . SVG Version: 6.00 Build 0)  -->
<svg version="1.1" xmlns="http://www.w3.org/2000/svg" xmlns:xlink="http://www.w3.org/1999/xlink" x="0px" y="0px"
	 viewBox="0 0 2957.4 2633.5" style="enable-background:new 0 0 2957.4 2633.5;" xml:space="preserve">
<style type="text/css">
	.st0{fill:#3A54A5;}
	.st1{fill:#E6B022;}
</style>
<g id="Blue">
	<path class="st0" d="M1588.3,680.6c-5.6-1.1-13.2-0.6-17.2,0.8c-5.9,2.1-7.5,8.7-9.1,14.1c-2.7,9.6-1.1,19.7-0.2,29.6
		c3.4,34.6-0.5,69.7-7.6,103.7c-0.9,4.3-1.9,8.8-4.5,12.4c-6.3,8.8-20.1,9.2-29.1,3.2s-13.9-16.5-16.9-26.9
		c-11.7-40.7,0.1-84.4-3.9-126.5c-0.3-3.5-1.2-7.7-4.5-9c-2.2-0.9-4.7-0.1-6.9,0.7c-6.3,2.2-12.5,4.3-18.8,6.5
		c-1.8,0.6-3.8,1.3-5,2.9c-3.1,3.8-0.7,13.8-0.7,18.4c0,9-1.1,18.1-1.7,27c-1.4,18.8-3.1,37.6-2.3,56.5c2,46.6,33.5,119.8,93.1,90.8
		c14.4-7,24.4-20.9,30.1-35.9c5.7-14.9,7.5-31,9.2-46.9c3-27.4,6.1-54.9,9.1-82.3c1.3-11.3,3.4-31.2-9-37.8
		C1591.4,681.3,1590,680.9,1588.3,680.6z"/>
	<path class="st0" d="M1232.9,670.7c-4.9-6.7-12.6-10.8-20.1-7.7c-6.8,2.8-10.4,10.2-13.4,16.9c-6,13.6-12.1,27.2-18.1,40.8
		c-0.9,2-2.2,4.3-4.4,4.4c-1.8,0-3.2-1.5-4.4-3c-8-10.3-16-20.6-23.9-30.9c-4.6-5.9-9.5-12.1-16.6-14.7c-7-2.6-16.6,0.4-18.3,7.7
		c-0.9,3.8,0.5,7.7,1.9,11.3c5.8,14.9,12.6,29.4,20.3,43.5c7,12.8,26,37.5,26,37.5s-2.8,62.2-4.3,92.4c-0.9,17.4-2,82.7,34.2,61.4
		c9.3-5.5,9.6-18.7,8.7-29.5c-5-60.8,2-125.8,2-125.8s35-76.2,35.3-89.5C1237.9,680.3,1236,675,1232.9,670.7z"/>
	<path class="st0" d="M1412.7,837c3.6-20.5,1.9-42.7-3.1-63c-5.2-21-13.5-41.7-28.1-57.7c-14.6-15.9-36.3-26.4-57.7-23.6
		c-29.8,3.9-51.5,32.5-57.2,62c-5.7,29.5,1.3,59.8,8.7,88.9c6.8,26.8,12.6,50.4,41.2,58.6c24.3,6.9,52.4,1,71.1-16.3
		C1401.6,873,1409.4,855.7,1412.7,837z M1374.8,843.3c-4.3,9.4-14,16.1-22.5,21.9c-58.5,40.1-63.9-73.3-51-105
		c6.1-15.1,18.1-30.3,34.4-30.7c10.9-0.3,21,6.3,28.4,14.4c20.8,23,24.1,57.9,15.2,87.5C1378,835.4,1376.6,839.4,1374.8,843.3z"/>
	<path class="st0" d="M1801.8,889.7c-0.4-0.9-0.9-1.7-1.3-2.6c-18.7-34.7-37.5-69.4-56.2-104.1c13.8-15.3,25.2-33.2,29.7-53.2
		s1.3-42.4-11.7-58.4c-12.9-16-36.3-23.8-55.2-15.9c-5.9,2.5-19,10-25.3,9.3c0,0-0.5-14-12.5-13c-14.7,3.4-14.2,24.8-16,39.8
		c-5.5,45.5-11,91-16.6,136.5c-1.7,14.1-13.6,52.7-6.8,65c5.2,9.5,30.1,13.8,34.3,2c2.6-7.4,1.9-17.1,2.4-24.8
		c0.6-9.5,1.2-19.1,1.8-28.6c0.7-10.9,5.8-49.3,5.8-49.3s31-6.4,41-2c0,0,6.6,20.7,10,28c13.3,28,19.6,54.8,32.9,82.9
		c1.4,3,2.9,6,5.5,8c3.1,2.4,7.3,2.7,11.2,2.9c12.3,0.8,29.2-2.5,29.1-14.8C1804,894.7,1803.1,892.2,1801.8,889.7z M1725.5,757.8
		c-1.8,1.2-3.8,2.3-5.8,3.3c-9.1,4.4-35.1,7.6-44.9,3.3c0,0,7-68,9.5-77c17.5-4.6,41.6-10.8,55,5.3c5.8,6.9,8.4,16.2,8.1,25.2
		C1747,734.1,1739.1,748.8,1725.5,757.8z"/>
	<path class="st0" d="M1865.8,204c0,0.2-0.1,0.3-0.2,0.5C1865.7,204.4,1865.8,204.2,1865.8,204z"/>
	<path class="st0" d="M1861,202.1c0,0.3,0.1,0.5,0.2,0.7C1861.1,202.6,1861,202.4,1861,202.1L1861,202.1z"/>
	<path class="st0" d="M1915,397.7c-2.1-17-13.2-9.5-22.2-2.5c-15,11.6-29.5,23.9-44.3,35.9c-32.5,26.3-68.8,54.1-110.7,53.5
		c-12.8-0.2-26.1-3.3-36-11.4s-15.8-21.9-12.3-34.2c3.2-11.2,13-19,22.3-25.9c50.9-37.7,105.5-71.6,147.2-119.3
		c9.9-11.3,19.2-23.7,23.6-38.1s3.1-31.3-6.4-42.9c-12.9-15.7-35.9-17.4-56.2-18c-22.7-0.6-46-1.1-67.6,6
		c-22.7,7.5-41.9,23-58.3,40.4c-23.6,25.2-42.5,55.3-51.9,88.5c-11,39.1-8.7,80.6-5,121c0.7,7.7,1.1,16.5-4.2,22.1
		c-2.6,2.8-6.3,4.3-9.8,5.7c-20,8-43.7,14.7-61.9,3.3c-19.3-12-22.8-37.9-31.9-58.6c-9.9-22.7-28.6-41.4-51.2-51.5
		c28.2-9.6,51.8-32.1,62.6-59.9c10.8-27.8,8.7-60.3-5.6-86.5c-5.5-10-12.8-19.3-22.8-24.8c-12.8-7.1-28.4-7.3-42.8-4.6
		c-23.6,4.5-45.6,16.5-62.2,33.8c-3.1-46.5,0.7-48-11.6-84.2c-2.6-7.8-8.3-17.1-16.4-15.5c-4.7,0.9-7.8,5.3-10.2,9.5
		c-26.8,46.4-19.9,71.7-24.5,127.4c-5,60.3,0,121,0,181.5c0,7.2,0,14.7-3,21.3c-2.6,5.8-7.2,10.5-11.7,15.1
		c-16.8,16.9-33.5,33.8-50.3,50.8c-6,6-12.6,12.4-21,13.6c-13.3,2-28.1-23.3-28.1-23.3s0.6-26.6,3.4-39.7
		c7.6-34.7,10.8-70.4,9.6-105.9c-0.3-8.4-1.3-17.8-7.6-23.4c-6.6-5.8-17.1-5.3-24.6-0.8c-7.5,4.5-12.6,12.2-16.6,20
		c-14.9,29-18.7,63.6-10.3,95.2c2.1,7.9,5,15.8,4.5,24c-0.8,15.2-12.5,27.3-23.5,37.8c-15.9,15.2-39.2,31.4-57.7,19.6
		c-10.9-6.9-14.7-20.9-16.7-33.6c-7.8-49.1,1.5-107,43-134.3c14.2-9.3,30.8-14.2,45.4-22.9c14.5-8.7,27.6-23.4,26.7-40.3
		c-0.1-2.1-0.5-4.4-1.7-6.1c-2.4-3.3-7.1-3.7-11.2-3.7c-55.8,0.1-112.6,28.8-139.3,77.8c-13.9,25.5-19.2,54.8-22.5,83.7
		c-2.9,25-4.4,50.5,1.2,75c9.1,39.7,32.9,67.3,74.9,61.6c38.5-5.3,74.8-27.6,95.6-60.6c16.2,28.2,59.4,35.8,84.2,14.9
		c10-8.4,18.3-19.5,26.8-29.8c4.7-5.6,9.5-11.6,15.1-16.3c4.2-3.6,13.7-12.4,13.7-12.4c0,0-13.3,41.2-12.9,48.3
		c0.9,15,23.6,19.3,35,9.6s14.1-26,16-40.9c3.9-30.4,7.8-60.9,11.7-91.3c0.6-4.4,1.4-9.3,5-12c2.9-2.2,6.9-2.3,10.6-2
		c21.2,1.7,41.4,13.2,53.7,30.5c10,14.1,14.6,31.1,21.6,46.8s17.8,31.3,34.1,36.8c12.8,4.2,26.7,1.6,39.7-2
		c30-8.2,58.8-20.8,85.1-37.4c1.4,17.7,15.2,32.8,31.6,39.7c16.4,6.9,34.9,6.8,52.5,4.1c69.5-10.3,128.5-56.9,174.6-109.8
		c5.4-6.2,10.9-12.8,12.8-20.8C1915.1,403.1,1915.3,400.4,1915,397.7z M1863.1,200.6c-0.4-0.1-0.8-0.1-1.3,0.1
		C1862.3,200.5,1862.7,200.5,1863.1,200.6z M1218.1,415.2c-0.3,6.4-0.7,12.8-1.4,19.2c-1.8,17.2,1.2,37.3-7.3,51.7
		c-12.2-35.2-14-70.5-1.3-105.1c0.8-2.2,1.8-4.6,3.7-6c1.9-1.4,5.1-1.4,6.3,0.6c0.6,1,0.6,2.3,0.6,3.4
		C1218.7,391.1,1218.7,403.1,1218.1,415.2z M1334.2,489.2L1334.2,489.2c0.1-0.1,0.2-0.1,0.4-0.2
		C1334.4,489.1,1334.3,489.1,1334.2,489.2z M1465.1,335.8c-1.2,1.2-2.4,2.3-3.6,3.5c-4,3.9-60.9,45.3-63.4,37.4
		c-5.5-17.2-2.1-37.2,0.1-54.8c1-7.9,2-15.9,3-23.8c0.4-3.4,0.9-6.8,2.3-9.9c1.5-3.3,4.1-5.9,6.6-8.5c8.5-8.7,32.8-30.7,43.2-36.9
		c22.1-13.2,55.8-11.6,57.1,20.7C1511.5,292.6,1484.2,317.5,1465.1,335.8z M1681.7,387.8c-3.5-1.6-5.3-7.2-4.7-18.8
		c1.1-22.1,2.3-44.7,12.4-65c8.1-16.4,21.7-30.4,36.2-43.1c13.6-11.8,28.5-22.8,46.2-29.4c15.9-6,69.2-14.4,63.1,13
		c-8.3,37.2-37.9,66.9-69.4,91.8c-16.8,13.2-34.3,25.7-52.7,37.2C1698.8,382.3,1687.6,390.6,1681.7,387.8z M1882.6,431.2
		c-0.3,0.5-0.7,0.9-0.9,1.5C1881.9,432.1,1882.2,431.6,1882.6,431.2c0.3,0,0.5,0,0.7,0.1C1883.1,431.2,1882.8,431.1,1882.6,431.2z"
		/>
	<path class="st0" d="M988.3,572.9c-0.1,0.3-0.2,0.6-0.3,0.9c-3,7.9-14.5,10-22,5.7c-7.7-4.5-11.8-13.3-14.9-21.7
		c-26.3-71.5-13.9-150.4-7.3-226.3c5.9-68.4,6.9-137.2,2.7-205.6c-0.9-14.7-2.5-30.5-12.4-41.4C921.8,71,900,69.8,883.3,77.3
		c-16.7,7.5-29.3,21.7-40.6,36.1c-24.9,31.6-46.4,65.8-64.1,102c-10.3-36.2-25.1-71.1-44.1-103.7c-7.7-13.1-16.3-26.3-28.9-34.8
		c-12.6-8.5-30.1-11.4-43-3.4c-14.9,9.2-18.9,28.7-21.5,46c-20.1,131-40.2,262-60.3,393c-3.9,25.2-7.8,50.5-15,74.9
		c-5.8,19.6-17.8,41.6-38.2,42.8c-21.9,1.3-36.3-21.8-45.2-41.8c-5.2-11.8-10.4-25-6.3-37.2c4.1-12.2,22.5-19.2,30.1-8.8
		c8.1,11-1.5,32,11,37.5c5.4,2.4,12-0.6,15.6-5.4c3.6-4.8,4.8-10.8,5.9-16.6c3.1-16,6.1-33.5-1.4-47.9
		c-12.2-23.4-47.5-25.9-69.1-10.9c-18.6,12.9-29.4,35.1-32,57.6s2.2,45.3,10,66.5c7.8,21.5,19.3,42.7,38.2,55.6
		c28,19.1,67.7,15.2,95.8-3.8c28.1-19,45.8-50.5,55.2-83.1c9.3-32.6,11.2-66.9,13.7-100.7c7.1-94.7,20-188.9,38.7-282
		c11.1,24.1,22.3,48.2,33.4,72.3c3.2,7,6.5,14.2,7.5,21.9c1.2,9.6-1.3,19.2-3.4,28.6c-4.6,20.6-7.4,41.6-8.5,62.6
		c-1.1,22.8,0.1,46.6,11.3,66.5c11.2,19.8,34.9,34.2,56.9,28.1c19.8-5.5,32.3-25.1,38.7-44.6c7.6-23.1,9.3-48.1,4.8-71.9
		c-7-37.1-28.5-73.4-20.1-110.2c3.3-14.6,11.1-27.7,19.5-40c12.4-18.4,26.4-35.7,41.6-51.8c3.3-3.5,7.4-7.2,12.1-6.3
		c4.1,0.8,6.7,4.8,8.4,8.6c8.6,19.3,7.1,41.4,5.5,62.5c-3.9,49.5-7.8,98.9-11.8,148.4c-4.2,53.4-8.4,107.5,0.8,160.3
		c3.1,17.7,7.9,35.5,17.8,50.5c9.9,15,25.6,27,43.5,28.9C965.8,625.8,1013,594.8,988.3,572.9z M766.4,442.4
		c-10.6-7.2-14.2-21.1-15.1-33.9c-1.9-25.7,3.7-51.4,9.3-76.6c0.3-1.2,3.6-12.1,3.6-12.1s3.6,10.7,4.6,13.7
		c4.3,13.3,7.8,26.8,10.6,40.5c2.2,10.8,3.9,21.7,5.1,32.7C785.8,418.1,791.4,459.6,766.4,442.4z"/>
	<path class="st0" d="M2107.7,1276.3c-6.1,1.3-13.4,15.4-16.3,18.4c-4.2,4.5-8.6,9.9-13.6,13.6c-12.6,9.1-27.4,15.7-42.9,17.7
		c6.2-19.8,5.5-37.6-2.3-53.6c-7.7-16-25.1-28.8-42.6-25.3c-20.2,4-31,28.3-27,48.5c4,20.2,18.7,36.4,34,50.1
		c-13.3,17.2-34.9,39-58.5,28.2c-9.2-4.2-16.4-11.9-21.8-20.5c-22-34.8-12.7-73.6-15-111.9c-3.6-61-1.9-119-5.5-180
		c-1-17.7-7.5-38.8-14.7-55c-7.3-16.2-22.1-30.2-39.8-31.1c-12-0.7-23.4,4.6-34,10.2c-33,17.6-63.1,40.4-89,67.4
		c0-28.5-4.5-74.5-30.7-77.6c-33.7,13.1-38.1,90.4-37.2,139c0.4,23.7-7.5,61.5-7.5,61.5c-34,27.5-56,8-56,8s11.7-63.9,12.5-76.4
		c2.6-41.4-17.6-83.4-51.4-107.4c-5.7-4-12.5-7.7-19.3-6.2c-7.7,1.8-12.3,9.5-15.5,16.8c-11.1,26-11.1,51.4-9.2,83
		c2.8,47,29.4,99.1,29.4,99.1c-5.5,14.3-28,46.5-38.9,57.2c-25.5,24.8-66.2,45.7-94.7,24.4c17-51.8,32.1-112.4,1.6-157.5
		c-9.6-14.3-26.8-26.6-43.2-21.3c-8.2,2.6-14.5,9.1-19.4,16.1c-23.8,34.3-23,79.3-8.6,118.4c3.6,9.8,9.8,32.2,9.8,32.2
		s-8,13.8-13.8,19.3c-14,13.4-29.3,24.6-44.3,36.7c-29.9,24-54.7,13.4-75-16.6c-52.9-78.3-61.9-184.3-22.9-270.4
		c5.6-12.3,11.9-27.3,3.9-38.2c-9.5-13.1-31.8-7-40.9,6.4c-9.1,13.4-10.1,30.5-14.5,46c-9.8,34.7-38.8,63.2-73.7,72.4
		c8.4-76.9,3.3-156.3-23.5-228.9c-6.2-16.7-13.8-33.5-26.6-45.9s-32.1-19.5-49-13.7c-18.3,6.2-28.9,24.9-36.1,42.8
		c-24.6,61.1-27.7,130.6-8.6,193.6c12.4,41,38.7,82.9,80.5,92.1c-10.1,68.8-48.8,132.9-105,173.8c-24.4,17.7-54.4,31.6-84,26
		c-37.9-7.2-62.8-43.2-79.6-77.9c-46.2-95.6-62.3-207.8-32.1-309.6c30.2-101.7,110.2-190.3,212.4-219c9.7-2.7,19.8-5,27.9-10.9
		s13.8-16.6,10.4-26.1c-3.7-10.6-16.3-14.8-27.3-16.6c-61-9.6-124,15.9-169.9,57.3c-45.9,41.4-76.6,97-99.7,154.4
		c-35.1,87.3-54.2,182.6-43.3,276.1c10.9,93.5,53.9,185,126.8,244.5c13.6,11.1,28.4,21.1,45.3,25.8c19.2,5.4,39.8,3.3,59.2-1.2
		c54.7-12.8,104-45.4,140.1-88.6c36-43.2,59.1-96.4,69.6-151.6c2.7-14.1,13.9-52.7,13.9-52.7s46-17.3,61.6-39.8
		c-4,5.7-0.9,26-0.9,33.1c0,11.8,0.3,23.7,1,35.5c1.4,24.4,4.4,48.7,8.8,72.7c7.7,42.2,18.1,87.6,49.8,118.7
		c26.7,26.2,67,37.8,103.5,29.8s68.3-35.3,81.7-70.3c6.5,36.3,42.9,61.9,79,56.2s65.1-33.5,85.7-63.8
		c25.7-37.6,42.6-81.1,49.1-126.2c20.3,9.1,38.3,11.1,61.9-0.1c-4.5,50.9-4.8,102.1-1.1,153c1.2,16.6,3.4,34.3,14.2,47
		c10.9,12.6,33.5,16.2,43.4,2.8c5.6-7.7,5.4-18,4.8-27.6c-3.6-60.8-10.4-122.6,2.6-182.2s50.4-117.9,108.3-137.1
		c6.5-2.2,13.6-3.8,20.2-1.9c14.7,4.3,19,22.8,19.3,38.1c0.9,48.5-13.5,95.7-20.9,143.6s-6.7,100.4,20.7,140.4s89.3,58.4,126,26.7
		c13.2-11.5,49.7-57.7,49.7-57.7s34.2-1,57.3-13.9c11.7-6.6,21.2-18,25.8-30.6c2.1-5.8,3.5-12.1,3.3-18.3c-0.1-3.5-1.8-9.5-4.2-12.1
		C2110.3,1276.3,2109,1276,2107.7,1276.3z M1003.4,1125.4c-17.7-10.8-30.1-19.8-39.4-39c-27.9-57.3-40.8-169.2-5.6-218.4
		c3.2-4.5,9-7.6,14.4-6.5c4,0.8,7,3.9,9.6,7.1C1009.2,901.3,1008.6,1128.6,1003.4,1125.4z M1378.2,1216
		c-1.8,7.8-13.3,27.9-13.3,27.9l-3.5-10.2c-14.7-29.3-16.4-53.7-3.9-84.6c1.5-3.8,3.6-8.1,7.6-9.2c5.6-1.4,10.2,4.5,12.3,9.9
		C1385.8,1170.7,1383.5,1193.6,1378.2,1216z M1555.4,1162.4c-11,1-25.5-71.6-28.2-95.8c-1.2-11.2,1.3-25.6,7.9-35
		c8.6,13.4,18.8,27.8,22.9,43.3c3.9,15.1,3.7,31,2.9,46.4C1560.6,1124.3,1558.3,1162.1,1555.4,1162.4z M2015.9,1322.1
		c-0.2,0.5-14.3-10.1-15.6-11.2c-4.7-4.3-8.8-9.4-12.3-14.7c-5.6-8.5-9.9-21.3,1.5-28c7.6-4.5,15.4-0.6,21.2,6
		C2023.3,1288.4,2024.1,1305.5,2015.9,1322.1z"/>
	<path class="st0" d="M2003.4,1902.5c7.5-39.2,23.6-76.7,47.4-108.7c16-21.5,44.4-42.2,67.5-28.6c12.2,7.1,17.8,21.4,25.5,33.2
		c7.7,11.8,21.5,22.8,34.8,17.9c17.6-6.6,15.3-32.2,8-49.4c-9.6-22.5-23.1-44.5-44-57.4c-26.8-16.6-62-15.2-90.6-2.1
		c-28.6,13.2-51.2,36.7-69.3,62.5c-44.9,64.1-64.7,145.2-54.4,222.7c4.6,34.3,9.1,79.8,9.1,79.8c-70.5,40.5-86.8,9.5-97.5-16.9
		s-5.8-56.3-0.6-84.3c14.6-78.6,30.3-157,39.1-236.4c-18.4-2.5-37.5,0.4-54.3,8.3c-7.9,73.3-44.8,223.3-44.8,223.3
		s-48.7,100.7-72.9,139.1c-16-52-19.5-135.5-12-189.4c6.4-46.2,21.4-92.2,15.5-138.5c-2.2-17.1-7.8-34.6-20.6-46.1
		s-34.1-14.7-47-3.2c-10.9,9.7-12.6,25.8-13.3,40.3c-2.2,48-0.9,96.2,3.9,144c0.8,8.3,1.8,16.8-0.3,24.9
		c-2.3,8.9-8.1,16.5-13.9,23.6c-24,28.9-52.4,54-84.1,74.1c-9.1,5.8-20.1,11.4-30.3,7.8c-8.5-3-13.7-11.5-17.6-19.7
		c-45.7-94.7-9.2-221.1,79.9-276.8c25.5-16,55-27.2,74.3-50.2c3.4-4.1,6.6-8.8,7-14.1c1.3-14.2-15.8-22.5-29.9-24
		c-36.2-3.6-72.7,10.8-100.6,34.2c-27.9,23.4-47.9,55-62.7,88.2c-26.9,60.3-38.1,127.6-32.1,193.4c1.9,21.2,1.4,63.7,1.4,63.7
		s-18.9,41.5-39.9,45c-33.3,5.5-57.3-32.1-64.1-65.2c-17.8-85.6,11.8-173.6,11.1-261c-0.1-11.6-1.1-24.2-9.1-32.6
		c-14.3-15.2-42-5.6-52.4,12.6c-10.3,18.2-8.8,40.4-8.2,61.3c1.4,46.5-3.3,93.8-20.3,137.1c-17.1,43.3-47.4,82.4-88.6,104.1
		c-8.3,4.4-17.4,8.1-26.7,7.1c-24.4-2.5-34.1-33-34.3-57.6c-0.9-86.6,46.5-172.1,120.3-217.4c13.6-8.3,28.5-15.9,37.3-29.2
		c8.8-13.3,7.9-34.6-6.4-41.8c-9.7-4.9-21.3-1.5-31.4,2.6c-117,47.2-177.8,171.6-180.3,292.5c-1,47.2,11.8,102.1,54.8,121.7
		c30,13.7,66.4,4.9,93.5-13.9c27.1-18.8,46.8-46.2,66-73.1c16.7,41.9,45.9,81.6,88.2,97.2c42.3,15.6,98-1.7,113.4-44.1
		c30.9,24.5,76.5,23.6,112,6.3c35.5-17.3,62.3-48.2,84.8-80.7c5.4,39.8,10.7,79.6,16.1,119.4c0.8,5.8,0,17.5,0,17.5
		s-9.9,15-16.9,20.8c-49.5,40.9-96.1,86.3-129.8,140.9c-33.7,54.6-53.8,119.3-47,183.1c2.1,19.6,7.3,40,21.4,53.8
		c15.1,14.7,34.3,28.9,55.2,31.8c53.6,7.3,118.9-2.5,155.4-42.4c32.7-35.7,32-89.8,29.4-138.1c-3.4-62-6.7-124.1-10.1-186.1
		c-0.9-15.8-2-12.4-2-12.4s46.9-87.5,66.9-116.5c8,31,26.4,46.4,58,51c31.6,4.7,63.3-7.6,91.3-22.9c6.4-3.5,23.1-9.7,23.1-9.7
		s8,12.5,11.7,17.2c33,41.5,73,41.5,114.7,42.6c41.8,1.1,86-21.4,100.9-60.5c7.9-20.7,7.2-43.6,5.2-65.7
		c-1.3-14.2-8.6-32.8-22.5-30.1c-11.5,2.2-14.4,16.8-17.6,28c-7,24-27.7,43.4-52,48.9c-24.3,5.5-51.4-3.1-68-21.6
		c-13.3-14.8-19.7-34.4-23.5-53.9C1996.9,1970.3,1997,1935.8,2003.4,1902.5z M1201,2004.1c0.3-0.5,0.6-0.9,1-1.4
		c0.1,0,0.2,0.1,0.3,0.1C1201.8,2003.3,1201.4,2003.7,1201,2004.1z M1666.9,2329.6c-1.1,21-2.5,42-3.9,62.8
		c-2.4,35.1-9.8,74.4-29.2,104.4c-13.3,20.6-34.4,37.3-58.8,40.3c-19.9,2.4-33-7.4-44.1-22.8c-19.7-27.2-15.3-55.3-7.2-86.2
		c8.2-31.1,21.9-60.7,39.6-87.5c13.2-19.9,28.6-38.3,45.3-55.4c4.8-4.9,58-61.7,57.3-64.2c2.4,7.8,1.3,29.2,1.8,37.3
		c0.6,10.2,1,20.3,0.7,30.5C1668.1,2302.2,1667.6,2315.9,1666.9,2329.6z M1677.4,1894.7c-1.1,0.1-3.5-12.7-3.7-14.1
		c-3.5-27.7-6.1-55.4-7.7-83.3c-0.5-8.7-7.8-64.2,3.9-62.1c4.1,0.7,6.9,4.4,8.9,8c10.7,18.4,12.8,40.5,12.7,61.8
		c-0.1,24.4-2.7,48.8-7.8,72.7C1683.2,1879.9,1678.5,1894.6,1677.4,1894.7z"/>
	<path class="st0" d="M999.2,2076c-3.4-3.3-7.4-5.7-12.1-6.5c4.6,9.7,1.9,22.3-6.3,29.2s-21.1,7.5-29.9,1.3
		c-9.7-6.9-13-19.6-15.1-31.4c-27.2-156.7,50.4-312.8,52.3-471.9c0.2-14.4-0.6-29.8-8.9-41.5c-9.4-13.4-26.6-19-42.9-20.3
		c-43.3-3.4-85.4,18.9-115.8,49.8c-30.4,30.9-51.1,69.9-71.2,108.4c-13-30.9-25.9-61.9-38.9-92.8c-7.7-18.4-18.6-39.4-38.3-42.3
		c-20-3-36.7,14.5-48.6,30.8c-90.1,123.3-134.3,279.4-122.2,431.6c4,50.5,13.9,102.2,0.1,151c-7.4,26.2-26.1,53.4-53.3,54.7
		c-12.8,0.6-25.3-4.9-35.6-12.5c-30.3-22.3-43.8-67-26-100.1c9.9-18.3,33.8-32.1,51.5-21.1c7.6,4.7,12.4,13.1,15,21.7
		c2.4,7.9,3.2,16.9-0.6,24.3c-3.8,7.4-13.4,12.1-20.8,8.4c-7.4-3.7-8.1-16.8-0.2-19.6c-4.1-9.3-19.9-5.5-23.5,3.9
		c-3.6,9.5,0.8,20,5.5,29c4,7.4,8.4,14.9,15.4,19.7c15.6,10.8,38.8,3,49.8-12.4c11-15.4,12.3-35.9,10.1-54.7
		c-2.4-20.3-9.2-41.4-25-54.3c-26.3-21.3-68.5-10.7-90.3,15.2c-21.8,25.9-27,61.9-26,95.7c1.3,45.5,16.6,96.5,57.6,116.4
		c44.9,21.8,101.3-6,128.1-48.1s31.2-94.2,34.3-144.1c9.6-157.4,14.2-322.9,91.4-459.8c2.5-4.4,8.7-5.1,12-1.2
		c25.2,29.1,36.7,81.4,46.6,115.6c1.8,6.3,3.3,19.2,3.3,19.2s-5.1,18.5-9.1,27.3c-8,17.8-13.2,36.8-15.4,56.1
		c-1.9,17-1.4,34.8,6.2,50.1c7.6,15.3,23.6,27.3,40.7,26c26.5-2,40.3-32.2,45.1-58.4c8.2-43.9-9.8-99.4-9.8-99.4s0-7.1,3-15.5
		c3-8.5,5.7-10.3,9.9-17.1c30.8-50.3,68.6-96.1,112.2-135.8c9.5-8.7,26.1-16.5,33.1-5.3c2.1,3.3,2.7,7.3,2.1,11.2
		c-11.9,76.8-27.3,153-46.1,228.4c-7.1,28.7-14.8,57.5-17.8,86.9c-5.6,54.9-5.6,116.7,10,170.1c11.4,39.2,48.7,87.6,94.8,65
		c22.1-10.9,35-37.7,29.7-61.7C1007.7,2088,1004.3,2080.9,999.2,2076z M754.2,1892.1c-1.7,2.5-3.8,4.9-6.6,6.1
		c-5.4,2.5-12.1,0-16-4.5c-3.9-4.5-5.4-10.6-5.9-16.5c-1.3-16.2,4.2-32.2,9.6-47.5c4.4-12.4,7.7-30.9,16-40.4
		c5.5,7.4,6.5,20.5,8.5,30.1c4.8,23.9,8,50.3-4.6,71.1C754.8,1891.1,754.5,1891.6,754.2,1892.1z"/>
	<path class="st0" d="M1499,1806.6c0.3-0.2,0.6-0.4,0.9-0.7c-0.2,0-0.4,0-0.5,0.1C1499.2,1806,1499.1,1806.4,1499,1806.6z"/>
	<path class="st0" d="M1500.2,1805.9l-0.1-0.1c-0.1,0-0.1,0.1-0.2,0.1C1500,1805.9,1500.1,1805.9,1500.2,1805.9z"/>
</g>
<g id="Yellow">
	<path class="st1" d="M2398.5,359.1c-7.5-5.5-35.6-7.9-40.3-7.7c-19.6,0.8-39.4,4.8-58.9,1c-1.7-0.3-3-1.8-3.1-3.6L2293,261
		c-0.1-3.3-4.2-4.9-6.5-2.6c-30.5,30.4-59.1,62.8-85.5,96.8c-4.5,5.8-9.1,11.8-15.4,15.4c-5.7,3.3-12.3,4.5-18.8,5.6
		c-22.8,4-45.6,8-68.5,12c-3.1,0.5-4.2,4.3-2,6.5l40.5,39.8c2.1,2.1,4.4,4.5,4.8,7.5c0.3,2.8-1.1,5.4-2.5,7.8
		c-9,15.4-18.6,30.4-27.7,45.8c-7.3,12.3-25.5,35.6-25.6,50.2c-0.1,24.1,21.8,6.4,32.5-0.8c17.5-11.8,35-23.5,52.5-35.2
		c3.4-2.3,6.9-4.6,10.9-5.6c9.8-2.3,19.8,4.5,25.3,12.9s8,18.5,12.3,27.6c3.9,8.2,37.7,48.9,47.5,35.8c1-1.4,1.4-3.2,1.7-4.9
		c8.2-45.2,15-90.6,22.5-135.6c1-6.1,2.1-12.3,5.6-17.3c3.7-5.3,9.6-8.4,15.2-11.5c27.8-14.8,55.7-29.6,83.6-44.3
		C2401.2,363.7,2401.4,361.2,2398.5,359.1z"/>
	<path class="st1" d="M486.7,1235.7c0.1,0,0.2,0,0.3,0c9.5,11.7-42.8,60.3-64.5,90.7c-3.3,4.7-6.5,9.6-7.5,15.3
		c-1.3,7.4,1.3,14.8,3.7,21.9c8.7,25.7,15.6,51.9,20.8,78.5c0.9,4.5,1.2,10.2-2.7,12.6c-2.7,1.7-6.2,0.9-9.3,0
		c-16.6-4.9-32.7-11.5-48-19.5c-3.6-1.9-8-3.8-11.4-1.6c-1.5,1-2.5,2.6-3.4,4.2c-13,22.4-26.9,44.2-41.7,65.4
		c-2.7,3.9-8.4,8-11.5,4.4c-1-1.3-1.2-3-1.3-4.6c-1.5-22.7-0.9-45.5,1.7-68.1c0.9-7.8,2-15.8,0.1-23.4c-1.6-6.5-5.3-12.3-9.4-17.5
		c-11.1-14.1-26.1-25.2-42.8-31.7c-5.3-2.1-10.9-3.8-15.2-7.4c-26.8-22.3,61.2-49.1,74.5-53.3c3.4-1.1,8.4-1.2,9.7-4.6
		c1.5-4.2,4.2-16.7,4.8-25c2.1-27.8,18.2-52,23.1-79.3c0.6-3.2,1.5-7,4.6-8.2c3.7-1.3,7.3,2.2,9.4,5.5
		c13.8,21.8,14.5,50.6,31.2,70.3c1.9,2.2,4.1,4.4,6.9,4.8c2.6,0.4,5.2-0.6,7.5-1.7C439.4,1252.9,461.2,1235.4,486.7,1235.7z"/>
	<path class="st1" d="M2309.9,804.4c-3.5-7.6-24.6,0.7-31.7,4.1c-24.3,11.7-48.5,23.3-72.8,35c-3.7,1.8-7.9,3.6-11.9,2.4
		c-4.1-1.3-6.4-5.4-8.4-9.2c-9.4-17.8-18-38.6-28.8-56.8c-5.3-8.9-18.8-6.6-21.1,3.5c-5.4,24.1-6.7,50.5-10.4,73.7
		c-1.2,7.4-2.5,15.2-6.9,21.2c-4.4,5.9-11.2,9.4-17.8,12.7c-16.7,8.4-57.2,19.9-66.5,38c-16.3,31.5,29.5,30.2,52.2,39.6
		c6,2.5,12.2,5.2,15.9,10.5c4.3,6.3,3.8,14.5,3.1,22c0,0.3,0,0.6,0,0.9c-0.1,19.9-5.1,40.3-6.4,60.4c-0.7,9.8,10.5,15.9,18.4,10
		c16-12.1,30.9-27.5,45.6-39.9c5.1-4.4,10.5-8.8,17-10.6c8-2.2,16.4-0.1,24.4,2.1c21.4,5.7,52.9,21.7,77.7,22.5
		c8.4,0.3,14.2-8.4,10.8-16.1c-11.6-25.9-35.6-48.7-51.3-70.9c-3.8-5.4-7.7-11.2-8.2-17.7c-0.6-8,4.1-15.3,8.6-22
		c21.9-32.8,47.5-68.5,65.9-103.9c0,0,0,0,0,0C2310.4,810.4,2310.9,806.7,2309.9,804.4z"/>
	<path class="st1" d="M2631.2,640.4c-14.4-11.1-28.1-23-41.2-35.5c-2.6-2.5-5.4-5.3-6.1-8.9c-1-5,2.3-9.8,5.1-14
		c13.3-19.5,22.1-42.1,25.5-65.5c0.2-1.3,0-2.7-0.6-3.8c-2.2-3.9-7.4-2.1-10.9-0.1c-23.9,13.7-47.9,27.5-71.8,41.2
		c-3.5,2-7.2,4.1-11.3,4.3c-6.5,0.3-12-4.3-17.2-8.2c-13.5-10.1-29.3-17.2-45.8-20.6c-2.6-0.5-5.6-0.9-7.8,0.7
		c-1.6,1.2-2.2,3.2-2.7,5.2c-3.7,16.9,5.5,33.9,5.3,51.2c-0.3,24.3-18.8,44.4-38.3,58.8c-8,5.9-44.3,27.4-38.1,40.5
		c7.1,15.1,56.4-0.3,68.3-1.9c3.9-0.5,8-0.9,11.7,0.3c12.4,4,13.4,20.8,14.8,33.8c1.5,13.3,6.1,26.2,13.3,37.5
		c6.5,10.3,22.1,8.1,25.5-3.6c6.4-21.9,13.6-43.5,21.6-64.9c2.5-6.8,5.4-13.8,11.1-18.2c4.5-3.5,10.3-4.8,15.8-6l72.5-16.3
		C2632.7,645.8,2633.5,642.2,2631.2,640.4C2631.2,640.4,2631.2,640.4,2631.2,640.4z M2509.5,743.1l-0.2-0.5l0.5,0L2509.5,743.1z"/>
	<path class="st1" d="M261.3,1018.9c-7.9,21.3-14.8,42.9-20.6,64.8c-1.2,4.6-2.4,9.3-1.6,14c1.4,8.6,8.9,14.7,15.8,20
		c14.4,11,28.8,22,43.2,33c18.4,14.1,2.7,20.5-12.2,22.3c-18.5,2.3-37.4,0.8-55.2-4.3c-6.5-1.9-14.3-4-18,5
		c-0.4,0.9-0.6,1.9-0.9,2.8l-14.6,63.1c-2,8.7-14.2,9.1-16.9,0.6c-0.8-2.6-1.5-5.3-2.2-7.9c-5.4-21.3-10.7-42.6-16.1-63.9
		c-1-3.9-2.4-8.4-6-10.2c-2.6-1.3-5.7-0.9-8.5-0.4l-39.2,6.2c-7.2,1.1-12.2-7-8-12.9c16.5-23.5,45.9-39.3,56.9-66.4
		c12.9-31.7-3.4-68.1-3.1-101.9c0.1-9,12.1-11.9,16.4-4c9.3,17.4,18.7,34.8,28,52.3c0.9,1.6,2,3.1,3.5,4.1c6.9,5,13.7-1.5,18.8-6.8
		c8.3-8.5,18.1-15.4,28.9-20.4C256.6,1004.8,264,1011.7,261.3,1018.9z"/>
	<path class="st1" d="M466.5,852.4c4-6.2,8-13.2,5.4-19.9c-3.2-8-14.4-9.7-22.4-6.5c-8,3.3-14.1,9.9-21.4,14.5s-17.3,7.3-24.3,2.1
		c-6.4-4.7-7.3-13.6-10.1-21.1c-2.2-6.1-6-11.6-10.8-15.9c-6.5-5.9-17-2.2-18.2,6.6c-3.7,27.5-1.6,56.6-16.6,79.5
		c-9,13.7-22.7,22.9-37.7,30.3c-9,4.4-8.7,17.3,0.4,21.4l28.5,12.7c5.3,2.4,10.8,4.9,14.6,9.3c5,5.8,6.1,13.9,7,21.5
		c1.3,10.7,0,60.5,16.8,54.2c5.1-1.9,28.8-63.4,27.6-64.2c17.1,12.1,35.8,22,55.5,29.3c1.8,0.7,3.7,0.8,5.6,0.2
		c6.3-2,5.1-9.8,3-15.2c-8.6-22.1-21.3-43-23.9-66.6c-2.8-24.7,6-49.7,19.8-70.4C465.8,853.6,466.2,853,466.5,852.4z"/>
	<g>
		<path class="st1" d="M1983.9,1562.5L1983.9,1562.5c-1.1-1.1-2.5-1.8-3.9-2c-17.8-2.8-36-3.7-54-2.7c-5.2,0.3-11,0.6-15-2.8
			c-2.9-2.5-4.1-6.3-4.9-10c-4.2-19.1-1.5-39.7-9.2-57.8c-0.4-0.9-1-1.7-1.7-2.4c-2.9-2.4-5.6-0.5-7.7,1.3
			c-14.3,12.8-21.3,31.5-30.2,48.6c-8.8,17-13,24.5-31.8,28.6c-12.2,2.7-33.4,9.1-45.8,8.4c-18.7-1-41.4,8.8-23.9,27.6
			c11.4,12.3,32.9,14.3,38.6,32c3.6,11.2-5.5,25-8.3,35.8c-3.7,14.3-6.1,28.9-9.5,43.3c-0.2,0.9-0.4,1.8-0.3,2.7
			c0.2,9.8,13.3,8.8,20.7,4.2c22.7-14.2,35.5-39.7,55.1-58c0.9-0.9,2-1.6,3.2-2.2c6.7-3,11.4,3.2,15,8.4
			c15.3,22.5,42.4,44.4,70.5,50.2c5.6,1.2,10.2-4.5,7.9-9.8c-9.1-20.1-19.3-39.9-28.8-59.8c-1.5-3.2-3.1-6.8-2.3-10.3
			c0.7-3.1,3.3-5.5,5.7-7.7c18.7-16.9,37.3-33.8,56-50.7C1983.5,1573.7,1988.1,1566.7,1983.9,1562.5z"/>
	</g>
	<path class="st1" d="M2831.7,2024.2c2.6-49.6-1.3-99-11-144.5c-17.8-84.1-53.5-164.6-107.5-231.8
		c-111.4-138.7-304.7-213.1-476-165.4c-47.6,13.2-64,35.9-18.1,63.2c38.9,23.2,77.8,45.2,112.4,74.8
		c110.5,94.6,165.8,248.8,142.8,392.4s-122.5,272.2-254.8,332.4c-24.5,11.1-49.9,20.2-74,32.1c-17.5,8.6-41,21.9-53.1,37.4
		c-8.2,10.5,7.1,22.9,14.6,30.3c14.8,14.5,33.5,24.7,53.1,30.9c30.2,9.5,62.5,10.1,94.2,9c61.7-2.2,123.2-10.4,183.3-24.5
		c86-20.2,147.1-58,222.4-103.9C2772.3,2288.2,2824.8,2155.4,2831.7,2024.2z M2772.1,2242.1c0-0.1,0-0.2-0.1-0.3
		C2772.1,2241.8,2772.1,2242,2772.1,2242.1L2772.1,2242.1z M2821.7,2109.3c-0.1,0.7-0.8,1.3-2.6,1.7c-1,3.6-2,7.2-3,10.7
		c1-3.6,2-7.2,3-10.7c0.3-1.8,0.6-3.6,1-5.5c-0.3,1.8-0.6,3.6-1,5.5C2820.9,2110.6,2821.6,2110,2821.7,2109.3c0.1-0.3,0-0.7-0.2-1.1
		C2821.6,2108.6,2821.7,2108.9,2821.7,2109.3z"/>
</g>
</svg>
